<mxfile host="app.diagrams.net" agent="Mozilla/5.0 (X11; Ubuntu; Linux x86_64; rv:139.0) Gecko/20100101 Firefox/139.0" version="27.1.4">
  <diagram name="Page-1" id="HrHKI3ezdRzs0rRwSsVo">
    <mxGraphModel dx="2206" dy="763" grid="1" gridSize="10" guides="1" tooltips="1" connect="1" arrows="1" fold="1" page="1" pageScale="1" pageWidth="850" pageHeight="1100" math="0" shadow="0">
      <root>
        <mxCell id="0" />
        <mxCell id="1" parent="0" />
        <mxCell id="Z2CuNYhwVyd101jncrNv-6" style="edgeStyle=orthogonalEdgeStyle;rounded=0;orthogonalLoop=1;jettySize=auto;html=1;exitX=1;exitY=0.25;exitDx=0;exitDy=0;entryX=0;entryY=0.25;entryDx=0;entryDy=0;" edge="1" parent="1" source="Z2CuNYhwVyd101jncrNv-1" target="Z2CuNYhwVyd101jncrNv-2">
          <mxGeometry relative="1" as="geometry" />
        </mxCell>
        <mxCell id="Z2CuNYhwVyd101jncrNv-1" value="REQ" style="rounded=1;whiteSpace=wrap;html=1;fillColor=#fa6800;fontColor=#000000;strokeColor=#C73500;" vertex="1" parent="1">
          <mxGeometry x="-250" y="500" width="120" height="60" as="geometry" />
        </mxCell>
        <mxCell id="Z2CuNYhwVyd101jncrNv-16" style="edgeStyle=orthogonalEdgeStyle;rounded=0;orthogonalLoop=1;jettySize=auto;html=1;exitX=1;exitY=0.25;exitDx=0;exitDy=0;entryX=0;entryY=0.25;entryDx=0;entryDy=0;" edge="1" parent="1" source="Z2CuNYhwVyd101jncrNv-2" target="Z2CuNYhwVyd101jncrNv-3">
          <mxGeometry relative="1" as="geometry" />
        </mxCell>
        <mxCell id="Z2CuNYhwVyd101jncrNv-53" style="edgeStyle=orthogonalEdgeStyle;rounded=0;orthogonalLoop=1;jettySize=auto;html=1;exitX=0;exitY=0.75;exitDx=0;exitDy=0;entryX=1;entryY=0.75;entryDx=0;entryDy=0;" edge="1" parent="1" source="Z2CuNYhwVyd101jncrNv-2" target="Z2CuNYhwVyd101jncrNv-1">
          <mxGeometry relative="1" as="geometry" />
        </mxCell>
        <mxCell id="Z2CuNYhwVyd101jncrNv-2" value="ROUTER" style="rounded=1;whiteSpace=wrap;html=1;fillColor=#e3c800;fontColor=#000000;strokeColor=#B09500;" vertex="1" parent="1">
          <mxGeometry x="-5" y="500" width="120" height="60" as="geometry" />
        </mxCell>
        <mxCell id="Z2CuNYhwVyd101jncrNv-32" style="edgeStyle=orthogonalEdgeStyle;rounded=0;orthogonalLoop=1;jettySize=auto;html=1;exitX=1;exitY=0.25;exitDx=0;exitDy=0;entryX=0;entryY=0.25;entryDx=0;entryDy=0;" edge="1" parent="1" source="Z2CuNYhwVyd101jncrNv-3" target="Z2CuNYhwVyd101jncrNv-4">
          <mxGeometry relative="1" as="geometry" />
        </mxCell>
        <mxCell id="Z2CuNYhwVyd101jncrNv-51" style="edgeStyle=orthogonalEdgeStyle;rounded=0;orthogonalLoop=1;jettySize=auto;html=1;exitX=0;exitY=0.75;exitDx=0;exitDy=0;entryX=1;entryY=0.75;entryDx=0;entryDy=0;" edge="1" parent="1" source="Z2CuNYhwVyd101jncrNv-3" target="Z2CuNYhwVyd101jncrNv-2">
          <mxGeometry relative="1" as="geometry" />
        </mxCell>
        <mxCell id="Z2CuNYhwVyd101jncrNv-3" value="DEALER" style="rounded=1;whiteSpace=wrap;html=1;fillColor=#6d8764;fontColor=#ffffff;strokeColor=#3A5431;" vertex="1" parent="1">
          <mxGeometry x="215" y="500" width="120" height="60" as="geometry" />
        </mxCell>
        <mxCell id="Z2CuNYhwVyd101jncrNv-49" style="edgeStyle=orthogonalEdgeStyle;rounded=0;orthogonalLoop=1;jettySize=auto;html=1;exitX=0;exitY=0.75;exitDx=0;exitDy=0;entryX=1;entryY=0.75;entryDx=0;entryDy=0;" edge="1" parent="1" source="Z2CuNYhwVyd101jncrNv-4" target="Z2CuNYhwVyd101jncrNv-3">
          <mxGeometry relative="1" as="geometry" />
        </mxCell>
        <mxCell id="Z2CuNYhwVyd101jncrNv-4" value="REP" style="rounded=1;whiteSpace=wrap;html=1;fillColor=#a0522d;fontColor=#ffffff;strokeColor=#6D1F00;" vertex="1" parent="1">
          <mxGeometry x="430" y="500" width="120" height="60" as="geometry" />
        </mxCell>
        <mxCell id="Z2CuNYhwVyd101jncrNv-7" value="0" style="rounded=0;whiteSpace=wrap;html=1;fillColor=#ffe6cc;strokeColor=#d79b00;" vertex="1" parent="1">
          <mxGeometry x="-300" y="370" width="40" height="40" as="geometry" />
        </mxCell>
        <mxCell id="Z2CuNYhwVyd101jncrNv-9" value="5" style="rounded=0;whiteSpace=wrap;html=1;fillColor=#d5e8d4;strokeColor=#82b366;" vertex="1" parent="1">
          <mxGeometry x="-300" y="410" width="40" height="40" as="geometry" />
        </mxCell>
        <mxCell id="Z2CuNYhwVyd101jncrNv-10" value="Hello" style="rounded=0;whiteSpace=wrap;html=1;fillColor=#d5e8d4;strokeColor=#82b366;" vertex="1" parent="1">
          <mxGeometry x="-260" y="410" width="120" height="40" as="geometry" />
        </mxCell>
        <mxCell id="Z2CuNYhwVyd101jncrNv-11" value="Empty delimiter frame" style="text;html=1;align=center;verticalAlign=middle;whiteSpace=wrap;rounded=0;" vertex="1" parent="1">
          <mxGeometry x="-130" y="375" width="130" height="30" as="geometry" />
        </mxCell>
        <mxCell id="Z2CuNYhwVyd101jncrNv-12" value="Data frame" style="text;html=1;align=center;verticalAlign=middle;whiteSpace=wrap;rounded=0;" vertex="1" parent="1">
          <mxGeometry x="-130" y="415" width="130" height="30" as="geometry" />
        </mxCell>
        <mxCell id="Z2CuNYhwVyd101jncrNv-13" value="Frame 1" style="text;html=1;align=center;verticalAlign=middle;whiteSpace=wrap;rounded=0;" vertex="1" parent="1">
          <mxGeometry x="-380" y="375" width="70" height="30" as="geometry" />
        </mxCell>
        <mxCell id="Z2CuNYhwVyd101jncrNv-14" value="Frame 2" style="text;html=1;align=center;verticalAlign=middle;whiteSpace=wrap;rounded=0;" vertex="1" parent="1">
          <mxGeometry x="-380" y="415" width="70" height="30" as="geometry" />
        </mxCell>
        <mxCell id="Z2CuNYhwVyd101jncrNv-15" value="" style="endArrow=classic;html=1;rounded=0;exitX=0.5;exitY=1;exitDx=0;exitDy=0;fillColor=#fff2cc;strokeColor=#d6b656;curved=1;dashed=1;" edge="1" parent="1" source="Z2CuNYhwVyd101jncrNv-10">
          <mxGeometry width="50" height="50" relative="1" as="geometry">
            <mxPoint x="125" y="590" as="sourcePoint" />
            <mxPoint x="-80" y="510" as="targetPoint" />
            <Array as="points">
              <mxPoint x="-90" y="460" />
            </Array>
          </mxGeometry>
        </mxCell>
        <mxCell id="Z2CuNYhwVyd101jncrNv-17" value="0" style="rounded=0;whiteSpace=wrap;html=1;fillColor=#ffe6cc;strokeColor=#d79b00;" vertex="1" parent="1">
          <mxGeometry x="110" y="370" width="40" height="40" as="geometry" />
        </mxCell>
        <mxCell id="Z2CuNYhwVyd101jncrNv-18" value="5" style="rounded=0;whiteSpace=wrap;html=1;fillColor=#d5e8d4;strokeColor=#82b366;" vertex="1" parent="1">
          <mxGeometry x="110" y="410" width="40" height="40" as="geometry" />
        </mxCell>
        <mxCell id="Z2CuNYhwVyd101jncrNv-19" value="Hello" style="rounded=0;whiteSpace=wrap;html=1;fillColor=#d5e8d4;strokeColor=#82b366;" vertex="1" parent="1">
          <mxGeometry x="150" y="410" width="120" height="40" as="geometry" />
        </mxCell>
        <mxCell id="Z2CuNYhwVyd101jncrNv-20" value="Empty delimiter frame" style="text;html=1;align=center;verticalAlign=middle;whiteSpace=wrap;rounded=0;" vertex="1" parent="1">
          <mxGeometry x="280" y="375" width="130" height="30" as="geometry" />
        </mxCell>
        <mxCell id="Z2CuNYhwVyd101jncrNv-21" value="Data frame" style="text;html=1;align=center;verticalAlign=middle;whiteSpace=wrap;rounded=0;" vertex="1" parent="1">
          <mxGeometry x="280" y="415" width="130" height="30" as="geometry" />
        </mxCell>
        <mxCell id="Z2CuNYhwVyd101jncrNv-22" value="Frame 1" style="text;html=1;align=center;verticalAlign=middle;whiteSpace=wrap;rounded=0;" vertex="1" parent="1">
          <mxGeometry x="30" y="335" width="70" height="30" as="geometry" />
        </mxCell>
        <mxCell id="Z2CuNYhwVyd101jncrNv-23" value="Frame 2" style="text;html=1;align=center;verticalAlign=middle;whiteSpace=wrap;rounded=0;" vertex="1" parent="1">
          <mxGeometry x="30" y="375" width="70" height="30" as="geometry" />
        </mxCell>
        <mxCell id="Z2CuNYhwVyd101jncrNv-24" value="3" style="rounded=0;whiteSpace=wrap;html=1;fillColor=#e1d5e7;strokeColor=#9673a6;" vertex="1" parent="1">
          <mxGeometry x="110" y="330" width="40" height="40" as="geometry" />
        </mxCell>
        <mxCell id="Z2CuNYhwVyd101jncrNv-25" value="ABC" style="rounded=0;whiteSpace=wrap;html=1;fillColor=#e1d5e7;strokeColor=#9673a6;" vertex="1" parent="1">
          <mxGeometry x="150" y="330" width="120" height="40" as="geometry" />
        </mxCell>
        <mxCell id="Z2CuNYhwVyd101jncrNv-26" value="Frame 3" style="text;html=1;align=center;verticalAlign=middle;whiteSpace=wrap;rounded=0;" vertex="1" parent="1">
          <mxGeometry x="30" y="415" width="70" height="30" as="geometry" />
        </mxCell>
        <mxCell id="Z2CuNYhwVyd101jncrNv-27" value="Identity of connection" style="text;html=1;align=center;verticalAlign=middle;whiteSpace=wrap;rounded=0;" vertex="1" parent="1">
          <mxGeometry x="280" y="335" width="130" height="30" as="geometry" />
        </mxCell>
        <mxCell id="Z2CuNYhwVyd101jncrNv-28" value="" style="endArrow=classic;html=1;rounded=0;exitX=0.5;exitY=1;exitDx=0;exitDy=0;fillColor=#fff2cc;strokeColor=#d6b656;dashed=1;curved=1;" edge="1" parent="1" source="Z2CuNYhwVyd101jncrNv-19">
          <mxGeometry width="50" height="50" relative="1" as="geometry">
            <mxPoint x="110" y="590" as="sourcePoint" />
            <mxPoint x="140" y="510" as="targetPoint" />
            <Array as="points">
              <mxPoint x="150" y="470" />
            </Array>
          </mxGeometry>
        </mxCell>
        <mxCell id="Z2CuNYhwVyd101jncrNv-30" style="edgeStyle=orthogonalEdgeStyle;rounded=0;orthogonalLoop=1;jettySize=auto;html=1;exitX=1;exitY=0.5;exitDx=0;exitDy=0;entryX=0.5;entryY=0;entryDx=0;entryDy=0;curved=1;fillColor=#fff2cc;strokeColor=#d6b656;dashed=1;" edge="1" parent="1" source="Z2CuNYhwVyd101jncrNv-29" target="Z2CuNYhwVyd101jncrNv-25">
          <mxGeometry relative="1" as="geometry" />
        </mxCell>
        <mxCell id="Z2CuNYhwVyd101jncrNv-31" style="edgeStyle=orthogonalEdgeStyle;rounded=0;orthogonalLoop=1;jettySize=auto;html=1;exitX=0;exitY=0.5;exitDx=0;exitDy=0;curved=1;dashed=1;fillColor=#fff2cc;strokeColor=#d6b656;" edge="1" parent="1" source="Z2CuNYhwVyd101jncrNv-29">
          <mxGeometry relative="1" as="geometry">
            <mxPoint x="-190" y="380" as="targetPoint" />
          </mxGeometry>
        </mxCell>
        <mxCell id="Z2CuNYhwVyd101jncrNv-29" value="&#39;ABC&#39; is the identity of REQ socket in this case" style="rounded=1;whiteSpace=wrap;html=1;fillColor=#fff2cc;strokeColor=#d6b656;dashed=1;" vertex="1" parent="1">
          <mxGeometry x="-110" y="150" width="200" height="130" as="geometry" />
        </mxCell>
        <mxCell id="Z2CuNYhwVyd101jncrNv-33" value="" style="endArrow=classic;html=1;rounded=0;exitX=0.5;exitY=1;exitDx=0;exitDy=0;dashed=1;curved=1;fillColor=#fff2cc;strokeColor=#d6b656;" edge="1" parent="1" source="Z2CuNYhwVyd101jncrNv-19">
          <mxGeometry width="50" height="50" relative="1" as="geometry">
            <mxPoint x="120" y="450" as="sourcePoint" />
            <mxPoint x="370" y="510" as="targetPoint" />
            <Array as="points">
              <mxPoint x="330" y="460" />
            </Array>
          </mxGeometry>
        </mxCell>
        <mxCell id="Z2CuNYhwVyd101jncrNv-35" style="edgeStyle=orthogonalEdgeStyle;rounded=0;orthogonalLoop=1;jettySize=auto;html=1;exitX=0;exitY=0.5;exitDx=0;exitDy=0;entryX=0.5;entryY=0;entryDx=0;entryDy=0;dashed=1;curved=1;fillColor=#fff2cc;strokeColor=#d6b656;" edge="1" parent="1" source="Z2CuNYhwVyd101jncrNv-34" target="Z2CuNYhwVyd101jncrNv-4">
          <mxGeometry relative="1" as="geometry" />
        </mxCell>
        <mxCell id="Z2CuNYhwVyd101jncrNv-34" value="REP sockets strip off empty delimiter frame and anything before, then save this header to be used later when replying" style="rounded=1;whiteSpace=wrap;html=1;fillColor=#fff2cc;strokeColor=#d6b656;dashed=1;" vertex="1" parent="1">
          <mxGeometry x="570" y="320" width="210" height="110" as="geometry" />
        </mxCell>
        <mxCell id="Z2CuNYhwVyd101jncrNv-37" style="edgeStyle=orthogonalEdgeStyle;rounded=0;orthogonalLoop=1;jettySize=auto;html=1;exitX=0.5;exitY=0;exitDx=0;exitDy=0;entryX=0.5;entryY=1;entryDx=0;entryDy=0;curved=1;dashed=1;fillColor=#fff2cc;strokeColor=#d6b656;" edge="1" parent="1" source="Z2CuNYhwVyd101jncrNv-36" target="Z2CuNYhwVyd101jncrNv-4">
          <mxGeometry relative="1" as="geometry">
            <Array as="points">
              <mxPoint x="580" y="560" />
            </Array>
          </mxGeometry>
        </mxCell>
        <mxCell id="Z2CuNYhwVyd101jncrNv-36" value="World" style="rounded=0;whiteSpace=wrap;html=1;fillColor=#dae8fc;strokeColor=#6c8ebf;" vertex="1" parent="1">
          <mxGeometry x="520" y="640" width="120" height="40" as="geometry" />
        </mxCell>
        <mxCell id="Z2CuNYhwVyd101jncrNv-38" value="0" style="rounded=0;whiteSpace=wrap;html=1;fillColor=#ffe6cc;strokeColor=#d79b00;" vertex="1" parent="1">
          <mxGeometry x="280" y="680" width="40" height="40" as="geometry" />
        </mxCell>
        <mxCell id="Z2CuNYhwVyd101jncrNv-39" value="5" style="rounded=0;whiteSpace=wrap;html=1;fillColor=#dae8fc;strokeColor=#6c8ebf;" vertex="1" parent="1">
          <mxGeometry x="280" y="720" width="40" height="40" as="geometry" />
        </mxCell>
        <mxCell id="Z2CuNYhwVyd101jncrNv-40" value="Hello" style="rounded=0;whiteSpace=wrap;html=1;fillColor=#dae8fc;strokeColor=#6c8ebf;" vertex="1" parent="1">
          <mxGeometry x="320" y="720" width="120" height="40" as="geometry" />
        </mxCell>
        <mxCell id="Z2CuNYhwVyd101jncrNv-43" value="3" style="rounded=0;whiteSpace=wrap;html=1;fillColor=#e1d5e7;strokeColor=#9673a6;" vertex="1" parent="1">
          <mxGeometry x="280" y="640" width="40" height="40" as="geometry" />
        </mxCell>
        <mxCell id="Z2CuNYhwVyd101jncrNv-50" style="edgeStyle=orthogonalEdgeStyle;rounded=0;orthogonalLoop=1;jettySize=auto;html=1;exitX=0.25;exitY=0;exitDx=0;exitDy=0;fillColor=#fff2cc;strokeColor=#d6b656;dashed=1;curved=1;" edge="1" parent="1" source="Z2CuNYhwVyd101jncrNv-44">
          <mxGeometry relative="1" as="geometry">
            <mxPoint x="380" y="550" as="targetPoint" />
            <Array as="points">
              <mxPoint x="350" y="580" />
              <mxPoint x="381" y="580" />
            </Array>
          </mxGeometry>
        </mxCell>
        <mxCell id="Z2CuNYhwVyd101jncrNv-52" style="edgeStyle=orthogonalEdgeStyle;rounded=0;orthogonalLoop=1;jettySize=auto;html=1;exitX=0.25;exitY=0;exitDx=0;exitDy=0;fillColor=#fff2cc;strokeColor=#d6b656;curved=1;dashed=1;" edge="1" parent="1" source="Z2CuNYhwVyd101jncrNv-44">
          <mxGeometry relative="1" as="geometry">
            <mxPoint x="160" y="550" as="targetPoint" />
          </mxGeometry>
        </mxCell>
        <mxCell id="Z2CuNYhwVyd101jncrNv-44" value="ABC" style="rounded=0;whiteSpace=wrap;html=1;fillColor=#e1d5e7;strokeColor=#9673a6;" vertex="1" parent="1">
          <mxGeometry x="320" y="640" width="120" height="40" as="geometry" />
        </mxCell>
        <mxCell id="Z2CuNYhwVyd101jncrNv-46" value="" style="endArrow=classic;html=1;rounded=0;entryX=0.5;entryY=0;entryDx=0;entryDy=0;exitX=0.5;exitY=1;exitDx=0;exitDy=0;curved=1;dashed=1;fillColor=#fff2cc;strokeColor=#d6b656;" edge="1" parent="1" source="Z2CuNYhwVyd101jncrNv-4" target="Z2CuNYhwVyd101jncrNv-44">
          <mxGeometry width="50" height="50" relative="1" as="geometry">
            <mxPoint x="120" y="600" as="sourcePoint" />
            <mxPoint x="170" y="550" as="targetPoint" />
            <Array as="points">
              <mxPoint x="380" y="570" />
            </Array>
          </mxGeometry>
        </mxCell>
        <mxCell id="Z2CuNYhwVyd101jncrNv-48" style="edgeStyle=orthogonalEdgeStyle;rounded=0;orthogonalLoop=1;jettySize=auto;html=1;exitX=0;exitY=0.5;exitDx=0;exitDy=0;entryX=0.5;entryY=1;entryDx=0;entryDy=0;fillColor=#fff2cc;strokeColor=#d6b656;curved=1;dashed=1;" edge="1" parent="1" source="Z2CuNYhwVyd101jncrNv-47" target="Z2CuNYhwVyd101jncrNv-40">
          <mxGeometry relative="1" as="geometry" />
        </mxCell>
        <mxCell id="Z2CuNYhwVyd101jncrNv-47" value="Wrap the reply message into an envelope with the saved header before" style="rounded=1;whiteSpace=wrap;html=1;fillColor=#fff2cc;strokeColor=#d6b656;dashed=1;" vertex="1" parent="1">
          <mxGeometry x="490" y="820" width="210" height="110" as="geometry" />
        </mxCell>
        <mxCell id="Z2CuNYhwVyd101jncrNv-61" style="edgeStyle=orthogonalEdgeStyle;rounded=0;orthogonalLoop=1;jettySize=auto;html=1;exitX=0.5;exitY=0;exitDx=0;exitDy=0;fillColor=#fff2cc;strokeColor=#d6b656;curved=1;dashed=1;" edge="1" parent="1" source="Z2CuNYhwVyd101jncrNv-54">
          <mxGeometry relative="1" as="geometry">
            <mxPoint x="-60" y="550" as="targetPoint" />
          </mxGeometry>
        </mxCell>
        <mxCell id="Z2CuNYhwVyd101jncrNv-54" value="0" style="rounded=0;whiteSpace=wrap;html=1;fillColor=#ffe6cc;strokeColor=#d79b00;" vertex="1" parent="1">
          <mxGeometry x="-130" y="680" width="40" height="40" as="geometry" />
        </mxCell>
        <mxCell id="Z2CuNYhwVyd101jncrNv-55" value="5" style="rounded=0;whiteSpace=wrap;html=1;fillColor=#dae8fc;strokeColor=#6c8ebf;" vertex="1" parent="1">
          <mxGeometry x="-130" y="720" width="40" height="40" as="geometry" />
        </mxCell>
        <mxCell id="Z2CuNYhwVyd101jncrNv-56" value="Hello" style="rounded=0;whiteSpace=wrap;html=1;fillColor=#dae8fc;strokeColor=#6c8ebf;" vertex="1" parent="1">
          <mxGeometry x="-90" y="720" width="120" height="40" as="geometry" />
        </mxCell>
        <mxCell id="Z2CuNYhwVyd101jncrNv-60" style="edgeStyle=orthogonalEdgeStyle;rounded=0;orthogonalLoop=1;jettySize=auto;html=1;exitX=0;exitY=0.5;exitDx=0;exitDy=0;entryX=0.5;entryY=1;entryDx=0;entryDy=0;fillColor=#fff2cc;strokeColor=#d6b656;dashed=1;curved=1;" edge="1" parent="1" source="Z2CuNYhwVyd101jncrNv-59" target="Z2CuNYhwVyd101jncrNv-56">
          <mxGeometry relative="1" as="geometry" />
        </mxCell>
        <mxCell id="Z2CuNYhwVyd101jncrNv-59" value="ROUTER sockets have an internal hash table to map identity and REP sockets, here, it looks for the identity, after found, they strip off the identity header and send it back to the correct REQ sockets" style="rounded=1;whiteSpace=wrap;html=1;fillColor=#fff2cc;strokeColor=#d6b656;dashed=1;" vertex="1" parent="1">
          <mxGeometry x="70" y="820" width="210" height="110" as="geometry" />
        </mxCell>
      </root>
    </mxGraphModel>
  </diagram>
</mxfile>
